<svg width="280" height="280" viewBox="0 0 280 280" fill="none" xmlns="http://www.w3.org/2000/svg">
<mask id="path-1-inside-1_17306_41" fill="white">
<path d="M68.7156 203.354C68.7156 206.317 66.31 208.74 63.3564 208.509C47.0929 207.237 31.7438 200.209 20.1263 188.592C7.23966 175.705 1.37591e-06 158.227 0 140.003C-1.37591e-06 121.778 7.23965 104.3 20.1263 91.4134C31.7438 79.7959 47.0929 72.7679 63.3564 71.4963C66.31 71.2653 68.7156 73.6888 68.7156 76.6514L68.7156 112.118C68.7156 115.081 66.2806 117.419 63.4017 118.118C59.4177 119.086 55.7383 121.132 52.7914 124.079C48.5681 128.302 46.1955 134.03 46.1955 140.003C46.1955 145.975 48.5681 151.703 52.7914 155.927C55.7383 158.874 59.4177 160.919 63.4017 161.887C66.2806 162.586 68.7156 164.924 68.7156 167.887V203.354Z"/>
</mask>
<path d="M68.7156 203.354C68.7156 206.317 66.31 208.74 63.3564 208.509C47.0929 207.237 31.7438 200.209 20.1263 188.592C7.23966 175.705 1.37591e-06 158.227 0 140.003C-1.37591e-06 121.778 7.23965 104.3 20.1263 91.4134C31.7438 79.7959 47.0929 72.7679 63.3564 71.4963C66.31 71.2653 68.7156 73.6888 68.7156 76.6514L68.7156 112.118C68.7156 115.081 66.2806 117.419 63.4017 118.118C59.4177 119.086 55.7383 121.132 52.7914 124.079C48.5681 128.302 46.1955 134.03 46.1955 140.003C46.1955 145.975 48.5681 151.703 52.7914 155.927C55.7383 158.874 59.4177 160.919 63.4017 161.887C66.2806 162.586 68.7156 164.924 68.7156 167.887V203.354Z" stroke="#25B49C" stroke-width="78.5321" mask="url(#path-1-inside-1_17306_41)"/>
<path d="M140 90.9199C167.852 90.9201 189.99 113.137 189.99 140.003C189.99 166.868 167.852 189.085 140 189.085C112.149 189.085 90.0104 166.868 90.0103 140.003C90.0103 113.137 112.148 90.9199 140 90.9199Z" stroke="#FF93D0" stroke-width="39.266"/>
<g opacity="0.2">
<mask id="path-3-inside-2_17306_41" fill="white">
<path d="M211.284 203.354C211.284 206.317 213.69 208.74 216.644 208.509C232.907 207.237 248.256 200.209 259.874 188.592C272.76 175.705 280 158.227 280 140.003C280 121.778 272.76 104.3 259.874 91.4134C248.256 79.7959 232.907 72.7679 216.644 71.4963C213.69 71.2653 211.284 73.6888 211.284 76.6514L211.284 112.118C211.284 115.081 213.719 117.419 216.598 118.118C220.582 119.086 224.262 121.132 227.209 124.079C231.432 128.302 233.805 134.03 233.805 140.003C233.805 145.975 231.432 151.703 227.209 155.927C224.262 158.874 220.582 160.919 216.598 161.887C213.719 162.586 211.284 164.924 211.284 167.887V203.354Z"/>
</mask>
<path d="M211.284 203.354C211.284 206.317 213.69 208.74 216.644 208.509C232.907 207.237 248.256 200.209 259.874 188.592C272.76 175.705 280 158.227 280 140.003C280 121.778 272.76 104.3 259.874 91.4134C248.256 79.7959 232.907 72.7679 216.644 71.4963C213.69 71.2653 211.284 73.6888 211.284 76.6514L211.284 112.118C211.284 115.081 213.719 117.419 216.598 118.118C220.582 119.086 224.262 121.132 227.209 124.079C231.432 128.302 233.805 134.03 233.805 140.003C233.805 145.975 231.432 151.703 227.209 155.927C224.262 158.874 220.582 160.919 216.598 161.887C213.719 162.586 211.284 164.924 211.284 167.887V203.354Z" stroke="#25B49C" stroke-width="78.5321" mask="url(#path-3-inside-2_17306_41)"/>
</g>
<g opacity="0.3">
<mask id="path-4-inside-3_17306_41" fill="white">
<path d="M203.351 211.286C206.314 211.286 208.737 213.691 208.506 216.645C207.235 232.909 200.207 248.258 188.589 259.875C175.702 272.762 158.224 280.001 140 280.001C121.775 280.001 104.297 272.762 91.4105 259.875C79.793 248.258 72.765 232.909 71.4933 216.645C71.2624 213.691 73.6859 211.286 76.6485 211.286L112.115 211.286C115.078 211.286 117.416 213.721 118.115 216.6C119.083 220.584 121.129 224.263 124.076 227.21C128.299 231.433 134.027 233.806 140 233.806C145.972 233.806 151.701 231.433 155.924 227.21C158.871 224.263 160.917 220.584 161.884 216.6C162.583 213.721 164.922 211.286 167.884 211.286H203.351Z"/>
</mask>
<path d="M203.351 211.286C206.314 211.286 208.737 213.691 208.506 216.645C207.235 232.909 200.207 248.258 188.589 259.875C175.702 272.762 158.224 280.001 140 280.001C121.775 280.001 104.297 272.762 91.4105 259.875C79.793 248.258 72.765 232.909 71.4933 216.645C71.2624 213.691 73.6859 211.286 76.6485 211.286L112.115 211.286C115.078 211.286 117.416 213.721 118.115 216.6C119.083 220.584 121.129 224.263 124.076 227.21C128.299 231.433 134.027 233.806 140 233.806C145.972 233.806 151.701 231.433 155.924 227.21C158.871 224.263 160.917 220.584 161.884 216.6C162.583 213.721 164.922 211.286 167.884 211.286H203.351Z" stroke="#C5BBEE" stroke-width="78.5321" mask="url(#path-4-inside-3_17306_41)"/>
</g>
<path d="M90.917 140.002C90.9172 112.15 113.135 90.0127 140 90.0127C166.865 90.0128 189.082 112.15 189.082 140.002C189.082 167.854 166.865 189.992 140 189.992C113.134 189.992 90.917 167.854 90.917 140.002Z" stroke="#FF93D0" stroke-width="39.266"/>
<g opacity="0.3">
<mask id="path-6-inside-4_17306_41" fill="white">
<path d="M203.351 68.718C206.314 68.718 208.737 66.3124 208.506 63.3588C207.235 47.0953 200.207 31.7463 188.589 20.1288C175.702 7.2421 158.224 0.00244278 140 0.00244141C121.775 0.00244003 104.297 7.24209 91.4105 20.1288C79.793 31.7463 72.765 47.0953 71.4933 63.3588C71.2624 66.3124 73.6859 68.718 76.6485 68.718L112.115 68.718C115.078 68.718 117.416 66.2831 118.115 63.4041C119.083 59.4201 121.129 55.7407 124.076 52.7939C128.299 48.5705 134.027 46.1979 140 46.1979C145.972 46.1979 151.701 48.5705 155.924 52.7939C158.871 55.7407 160.917 59.4202 161.884 63.4041C162.583 66.2831 164.922 68.718 167.884 68.718H203.351Z"/>
</mask>
<path d="M203.351 68.718C206.314 68.718 208.737 66.3124 208.506 63.3588C207.235 47.0953 200.207 31.7463 188.589 20.1288C175.702 7.2421 158.224 0.00244278 140 0.00244141C121.775 0.00244003 104.297 7.24209 91.4105 20.1288C79.793 31.7463 72.765 47.0953 71.4933 63.3588C71.2624 66.3124 73.6859 68.718 76.6485 68.718L112.115 68.718C115.078 68.718 117.416 66.2831 118.115 63.4041C119.083 59.4201 121.129 55.7407 124.076 52.7939C128.299 48.5705 134.027 46.1979 140 46.1979C145.972 46.1979 151.701 48.5705 155.924 52.7939C158.871 55.7407 160.917 59.4202 161.884 63.4041C162.583 66.2831 164.922 68.718 167.884 68.718H203.351Z" stroke="#25B49C" stroke-width="78.5321" mask="url(#path-6-inside-4_17306_41)"/>
</g>
</svg>
